<?xml version="1.0" encoding="UTF-8" standalone="no"?>
<svg
   xmlns:dc="http://purl.org/dc/elements/1.1/"
   xmlns:cc="http://creativecommons.org/ns#"
   xmlns:rdf="http://www.w3.org/1999/02/22-rdf-syntax-ns#"
   xmlns:svg="http://www.w3.org/2000/svg"
   xmlns="http://www.w3.org/2000/svg"
   version="1.1"
   id="svg3914"
   viewBox="0 0 612.48752 606.38248"
   height="171.13461mm"
   width="172.85759mm">
  <defs
     id="defs3916">
    <linearGradient
       x1="0"
       y1="0"
       x2="1"
       y2="0"
       gradientUnits="userSpaceOnUse"
       gradientTransform="matrix(-646.46771,-667.46661,-667.46661,646.46771,746.54779,679.10193)"
       spreadMethod="pad"
       id="linearGradient3377">
      <stop
         style="stop-opacity:1;stop-color:#3cd88e"
         offset="0"
         id="stop3379" />
      <stop
         style="stop-opacity:1;stop-color:#00ddff"
         offset="0.998505"
         id="stop3381" />
      <stop
         style="stop-opacity:1;stop-color:#00ddff"
         offset="1"
         id="stop3383" />
    </linearGradient>
    <linearGradient
       x1="0"
       y1="0"
       x2="1"
       y2="0"
       gradientUnits="userSpaceOnUse"
       gradientTransform="matrix(-646.46771,-667.46661,-667.46661,646.46771,653.9939,768.74402)"
       spreadMethod="pad"
       id="linearGradient3399">
      <stop
         style="stop-opacity:1;stop-color:#3cd88e"
         offset="0"
         id="stop3401" />
      <stop
         style="stop-opacity:1;stop-color:#00ddff"
         offset="0.998505"
         id="stop3403" />
      <stop
         style="stop-opacity:1;stop-color:#00ddff"
         offset="1"
         id="stop3405" />
    </linearGradient>
    <linearGradient
       x1="0"
       y1="0"
       x2="1"
       y2="0"
       gradientUnits="userSpaceOnUse"
       gradientTransform="matrix(-646.46771,-667.46661,-667.46661,646.46771,710.89056,713.63733)"
       spreadMethod="pad"
       id="linearGradient3421">
      <stop
         style="stop-opacity:1;stop-color:#3cd88e"
         offset="0"
         id="stop3423" />
      <stop
         style="stop-opacity:1;stop-color:#00ddff"
         offset="0.998505"
         id="stop3425" />
      <stop
         style="stop-opacity:1;stop-color:#00ddff"
         offset="1"
         id="stop3427" />
    </linearGradient>
    <linearGradient
       x1="0"
       y1="0"
       x2="1"
       y2="0"
       gradientUnits="userSpaceOnUse"
       gradientTransform="matrix(-646.46771,-667.46661,-667.46661,646.46771,721.88037,702.99329)"
       spreadMethod="pad"
       id="linearGradient3443">
      <stop
         style="stop-opacity:1;stop-color:#3cd88e"
         offset="0"
         id="stop3445" />
      <stop
         style="stop-opacity:1;stop-color:#00ddff"
         offset="0.998505"
         id="stop3447" />
      <stop
         style="stop-opacity:1;stop-color:#00ddff"
         offset="1"
         id="stop3449" />
    </linearGradient>
    <linearGradient
       x1="0"
       y1="0"
       x2="1"
       y2="0"
       gradientUnits="userSpaceOnUse"
       gradientTransform="matrix(-646.46771,-667.46661,-667.46661,646.46771,737.59668,687.77142)"
       spreadMethod="pad"
       id="linearGradient3465">
      <stop
         style="stop-opacity:1;stop-color:#3cd88e"
         offset="0"
         id="stop3467" />
      <stop
         style="stop-opacity:1;stop-color:#00ddff"
         offset="0.998505"
         id="stop3469" />
      <stop
         style="stop-opacity:1;stop-color:#00ddff"
         offset="1"
         id="stop3471" />
    </linearGradient>
    <linearGradient
       x1="0"
       y1="0"
       x2="1"
       y2="0"
       gradientUnits="userSpaceOnUse"
       gradientTransform="matrix(-646.46771,-667.46661,-667.46661,646.46771,735.95563,689.36084)"
       spreadMethod="pad"
       id="linearGradient3487">
      <stop
         style="stop-opacity:1;stop-color:#3cd88e"
         offset="0"
         id="stop3489" />
      <stop
         style="stop-opacity:1;stop-color:#00ddff"
         offset="0.998505"
         id="stop3491" />
      <stop
         style="stop-opacity:1;stop-color:#00ddff"
         offset="1"
         id="stop3493" />
    </linearGradient>
    <linearGradient
       x1="0"
       y1="0"
       x2="1"
       y2="0"
       gradientUnits="userSpaceOnUse"
       gradientTransform="matrix(-646.46771,-667.46661,-667.46661,646.46771,932.70239,498.80389)"
       spreadMethod="pad"
       id="linearGradient3509">
      <stop
         style="stop-opacity:1;stop-color:#3cd88e"
         offset="0"
         id="stop3511" />
      <stop
         style="stop-opacity:1;stop-color:#00ddff"
         offset="0.998505"
         id="stop3513" />
      <stop
         style="stop-opacity:1;stop-color:#00ddff"
         offset="1"
         id="stop3515" />
    </linearGradient>
    <linearGradient
       x1="0"
       y1="0"
       x2="1"
       y2="0"
       gradientUnits="userSpaceOnUse"
       gradientTransform="matrix(-646.46771,-667.46661,-667.46661,646.46771,946.10333,485.82455)"
       spreadMethod="pad"
       id="linearGradient3531">
      <stop
         style="stop-opacity:1;stop-color:#3cd88e"
         offset="0"
         id="stop3533" />
      <stop
         style="stop-opacity:1;stop-color:#00ddff"
         offset="0.998505"
         id="stop3535" />
      <stop
         style="stop-opacity:1;stop-color:#00ddff"
         offset="1"
         id="stop3537" />
    </linearGradient>
    <linearGradient
       x1="0"
       y1="0"
       x2="1"
       y2="0"
       gradientUnits="userSpaceOnUse"
       gradientTransform="matrix(-646.46771,-667.46661,-667.46661,646.46771,954.75989,477.44034)"
       spreadMethod="pad"
       id="linearGradient3553">
      <stop
         style="stop-opacity:1;stop-color:#3cd88e"
         offset="0"
         id="stop3555" />
      <stop
         style="stop-opacity:1;stop-color:#00ddff"
         offset="0.998505"
         id="stop3557" />
      <stop
         style="stop-opacity:1;stop-color:#00ddff"
         offset="1"
         id="stop3559" />
    </linearGradient>
    <linearGradient
       x1="0"
       y1="0"
       x2="1"
       y2="0"
       gradientUnits="userSpaceOnUse"
       gradientTransform="matrix(-646.46771,-667.46661,-667.46661,646.46771,913.66937,517.2381)"
       spreadMethod="pad"
       id="linearGradient3575">
      <stop
         style="stop-opacity:1;stop-color:#3cd88e"
         offset="0"
         id="stop3577" />
      <stop
         style="stop-opacity:1;stop-color:#00ddff"
         offset="0.998505"
         id="stop3579" />
      <stop
         style="stop-opacity:1;stop-color:#00ddff"
         offset="1"
         id="stop3581" />
    </linearGradient>
    <linearGradient
       x1="0"
       y1="0"
       x2="1"
       y2="0"
       gradientUnits="userSpaceOnUse"
       gradientTransform="matrix(-646.46771,-667.46661,-667.46661,646.46771,883.84521,546.12396)"
       spreadMethod="pad"
       id="linearGradient3597">
      <stop
         style="stop-opacity:1;stop-color:#3cd88e"
         offset="0"
         id="stop3599" />
      <stop
         style="stop-opacity:1;stop-color:#00ddff"
         offset="0.998505"
         id="stop3601" />
      <stop
         style="stop-opacity:1;stop-color:#00ddff"
         offset="1"
         id="stop3603" />
    </linearGradient>
    <linearGradient
       x1="0"
       y1="0"
       x2="1"
       y2="0"
       gradientUnits="userSpaceOnUse"
       gradientTransform="matrix(-646.46771,-667.46661,-667.46661,646.46771,969.84753,462.8273)"
       spreadMethod="pad"
       id="linearGradient3619">
      <stop
         style="stop-opacity:1;stop-color:#3cd88e"
         offset="0"
         id="stop3621" />
      <stop
         style="stop-opacity:1;stop-color:#00ddff"
         offset="0.998505"
         id="stop3623" />
      <stop
         style="stop-opacity:1;stop-color:#00ddff"
         offset="1"
         id="stop3625" />
    </linearGradient>
    <linearGradient
       x1="0"
       y1="0"
       x2="1"
       y2="0"
       gradientUnits="userSpaceOnUse"
       gradientTransform="matrix(-646.46771,-667.46661,-667.46661,646.46771,785.89594,640.9917)"
       spreadMethod="pad"
       id="linearGradient3641">
      <stop
         style="stop-opacity:1;stop-color:#3cd88e"
         offset="0"
         id="stop3643" />
      <stop
         style="stop-opacity:1;stop-color:#00ddff"
         offset="0.998505"
         id="stop3645" />
      <stop
         style="stop-opacity:1;stop-color:#00ddff"
         offset="1"
         id="stop3647" />
    </linearGradient>
  </defs>
  <metadata
     id="metadata3919">
    <rdf:RDF>
      <cc:Work
         rdf:about="">
        <dc:format>image/svg+xml</dc:format>
        <dc:type
           rdf:resource="http://purl.org/dc/dcmitype/StillImage" />
        <dc:title></dc:title>
      </cc:Work>
    </rdf:RDF>
  </metadata>
  <g
     transform="translate(-50.89911,-223.45665)"
     id="layer1">
    <g
       id="g3363"
       transform="matrix(1.25,0,0,-1.25,-282.85714,1006.6479)">
      <g
         id="g3365">
        <g
           id="g3367">
          <g
             id="g3373">
            <g
               id="g3375">
              <path
                 d="m 311.987,223.67 -21.336,0 c -2.01,0 -3.88,0.599 -5.443,1.628 l 0,0 0,-3.872 c -0.402,-4.429 1.16,-9.213 4.785,-12.837 l 0,0 c 6.04,-6.04 16.614,-6.04 22.653,0 l 0,0 c 3.624,3.624 5.186,8.408 4.784,12.837 l 0,0 0,3.873 c -1.563,-1.029 -3.433,-1.629 -5.443,-1.629"
                 style="fill:url(#linearGradient3377);stroke:none"
                 id="path3385" />
            </g>
          </g>
        </g>
      </g>
      <g
         id="g3387">
        <g
           id="g3389">
          <g
             id="g3395">
            <g
               id="g3397">
              <path
                 d="m 297.297,482.774 -0.008,0 -4.027,-20.133 4.027,-12.08 0,-112.747 -8.053,0 0,-9.274 -4.028,-2.807 0,-9.228 28.195,18.263 0,3.046 -8.053,0 0,112.747 4.027,12.08 -4.027,20.133 -8.053,0 z"
                 style="fill:url(#linearGradient3399);stroke:none"
                 id="path3407" />
            </g>
          </g>
        </g>
      </g>
      <g
         id="g3409">
        <g
           id="g3411">
          <g
             id="g3417">
            <g
               id="g3419">
              <path
                 d="m 285.208,295.943 -3.711,0 c -5.469,0 -9.91,-4.438 -9.91,-9.904 l 0,0 c 0,-5.477 4.441,-9.911 9.91,-9.911 l 0,0 3.711,0 26.779,0 c 2.01,0 3.88,0.6 5.443,1.63 l 0,0 c 2.69,1.771 4.468,4.817 4.468,8.281 l 0,0 c 0,3.458 -1.778,6.501 -4.468,8.273 l 0,0 c -1.563,1.029 -3.433,1.631 -5.443,1.631 l 0,0 -26.779,0 z"
                 style="fill:url(#linearGradient3421);stroke:none"
                 id="path3429" />
            </g>
          </g>
        </g>
      </g>
      <g
         id="g3431">
        <g
           id="g3433">
          <g
             id="g3439">
            <g
               id="g3441">
              <path
                 d="m 285.208,271.588 -8.295,0 c -5.475,0 -9.908,-4.442 -9.908,-9.904 l 0,0 c 0,-5.479 4.433,-9.918 9.908,-9.918 l 0,0 8.295,0 26.779,0 c 2.01,0 3.88,0.601 5.443,1.632 l 0,0 c 2.69,1.773 4.468,4.821 4.468,8.286 l 0,0 c 0,3.455 -1.778,6.5 -4.468,8.272 l 0,0 c -1.563,1.03 -3.433,1.632 -5.443,1.632 l 0,0 -26.779,0 z"
                 style="fill:url(#linearGradient3443);stroke:none"
                 id="path3451" />
            </g>
          </g>
        </g>
      </g>
      <g
         id="g3453">
        <g
           id="g3455">
          <g
             id="g3461">
            <g
               id="g3463">
              <path
                 d="m 290.651,247.233 c -2.01,0 -3.88,-0.601 -5.443,-1.63 l 0,0 c -2.69,-1.773 -4.467,-4.819 -4.467,-8.278 l 0,0 c 0,-3.467 1.777,-6.512 4.467,-8.283 l 0,0 c 1.563,-1.029 3.433,-1.628 5.443,-1.628 l 0,0 21.336,0 c 2.01,0 3.88,0.6 5.443,1.629 l 0,0 c 2.69,1.771 4.468,4.816 4.468,8.282 l 0,0 c 0,3.459 -1.778,6.504 -4.468,8.277 l 0,0 c -1.563,1.03 -3.433,1.631 -5.443,1.631 l 0,0 -21.336,0 z"
                 style="fill:url(#linearGradient3465);stroke:none"
                 id="path3473" />
            </g>
          </g>
        </g>
      </g>
      <g
         id="g3475">
        <g
           id="g3477">
          <g
             id="g3483">
            <g
               id="g3485">
              <path
                 d="m 318.63,334.127 -5.227,-3.373 -20.304,-13.104 c -4.523,-2.919 -5.822,-8.95 -2.906,-13.473 l 0,0 c 2.918,-4.516 8.953,-5.812 13.468,-2.894 l 0,0 13.769,8.887 1.611,1.039 c 2.825,-15.279 9.66,-39.644 25.178,-47.999 l 0,0 c 19.24,-10.357 31.244,-5.408 31.244,-5.408 l 0,0 0,-5.531 c 0,0 -12.539,-2.499 -24.005,1.474 l 0,0 c -14.294,4.939 -24.837,16.058 -24.837,16.058 l 0,0 0,-42.537 28.007,0 c 0,0 8.193,0.528 14.305,3.882 l 0,0 c 5.465,3.004 8.647,9.664 8.647,9.664 l 0,0 7.134,0 0,57.297 -6.057,0 -21.32,24.049 c -1.021,1.151 -2.301,2.041 -3.732,2.605 l 0,0 c -20.936,8.211 -27.704,10.864 -31.142,10.864 l 0,0 c -1.644,0 -2.527,-0.606 -3.833,-1.5"
                 style="fill:url(#linearGradient3487);stroke:none"
                 id="path3495" />
            </g>
          </g>
        </g>
      </g>
      <g
         id="g3497">
        <g
           id="g3499">
          <g
             id="g3505">
            <g
               id="g3507">
              <path
                 d="m 711.86,296.522 c -5.488,0 -9.945,-4.451 -9.945,-9.937 l 0,0 c 0,-5.495 4.457,-9.944 9.945,-9.944 l 0,0 30.593,0 c 5.488,0 9.945,4.449 9.945,9.944 l 0,0 c 0,5.486 -4.457,9.937 -9.945,9.937 l 0,0 -30.593,0 z"
                 style="fill:url(#linearGradient3509);stroke:none"
                 id="path3517" />
            </g>
          </g>
        </g>
      </g>
      <g
         id="g3519">
        <g
           id="g3521">
          <g
             id="g3527">
            <g
               id="g3529">
              <path
                 d="m 711.86,272.085 c -5.488,0 -9.945,-4.457 -9.945,-9.938 l 0,0 c 0,-5.497 4.457,-9.951 9.945,-9.951 l 0,0 35.193,0 c 5.493,0 9.942,4.454 9.942,9.951 l 0,0 c 0,5.481 -4.449,9.938 -9.942,9.938 l 0,0 -35.193,0 z"
                 style="fill:url(#linearGradient3531);stroke:none"
                 id="path3539" />
            </g>
          </g>
        </g>
      </g>
      <g
         id="g3541">
        <g
           id="g3543">
          <g
             id="g3549">
            <g
               id="g3551">
              <path
                 d="m 711.86,247.648 c -5.488,0 -9.945,-4.455 -9.945,-9.943 l 0,0 c 0,-5.497 4.457,-9.944 9.945,-9.944 l 0,0 21.408,0 c 5.492,0 9.945,4.447 9.945,9.944 l 0,0 c 0,5.488 -4.454,9.943 -9.945,9.943 l 0,0 -21.408,0 z"
                 style="fill:url(#linearGradient3553);stroke:none"
                 id="path3561" />
            </g>
          </g>
        </g>
      </g>
      <g
         id="g3563">
        <g
           id="g3565">
          <g
             id="g3571">
            <g
               id="g3573">
              <path
                 d="m 670.1,325.441 c -1.436,-0.566 -2.719,-1.459 -3.744,-2.614 l 0,0 -21.393,-24.13 -6.981,0 0,-57.492 8.062,0 c 0,0 3.193,-6.682 8.676,-9.697 l 0,0 c 6.134,-3.366 14.354,-3.895 14.354,-3.895 l 0,0 28.103,0 0,42.681 c 0,0 -10.581,-11.156 -24.922,-16.112 l 0,0 c -11.506,-3.987 -24.087,-1.479 -24.087,-1.479 l 0,0 0,5.549 c 0,0 12.045,-4.965 31.351,5.426 l 0,0 c 15.571,8.385 22.429,32.832 25.263,48.163 l 0,0 15.432,-9.959 c 4.532,-2.928 10.586,-1.628 13.514,2.903 l 0,0 c 2.926,4.539 1.622,10.59 -2.916,13.519 l 0,0 -25.617,16.533 c -1.311,0.897 -2.197,1.505 -3.846,1.505 l 0,0 c -3.45,0 -10.24,-2.661 -31.249,-10.901"
                 style="fill:url(#linearGradient3575);stroke:none"
                 id="path3583" />
            </g>
          </g>
        </g>
      </g>
      <g
         id="g3585">
        <g
           id="g3587">
          <g
             id="g3593">
            <g
               id="g3595">
              <path
                 d="m 681.96,388.487 c 0,-14.72 9.482,-27.34 22.966,-32.683 l 0,0 0,-12.638 28.028,-17.431 0,29.8 c 13.891,5.163 23.744,17.955 23.743,32.957 l 0,0 c 0,14.582 -9.303,27.094 -22.571,32.524 l 0,0 0,-36.419 -29.2,0 0,36.575 C 691.437,415.828 681.96,403.215 681.96,388.487"
                 style="fill:url(#linearGradient3597);stroke:none"
                 id="path3605" />
            </g>
          </g>
        </g>
      </g>
      <g
         id="g3607">
        <g
           id="g3609">
          <g
             id="g3615">
            <g
               id="g3617">
              <path
                 d="m 704.923,221.981 0,-30.759 c 0,-7.735 6.274,-14.01 14.013,-14.01 l 0,0 c 7.744,0 14.013,6.275 14.013,14.01 l 0,0 0,30.759 -28.026,0 z"
                 style="fill:url(#linearGradient3619);stroke:none"
                 id="path3627" />
            </g>
          </g>
        </g>
      </g>
      <g
         id="g3629">
        <g
           id="g3631">
          <g
             id="g3637">
            <g
               id="g3639">
              <path
                 d="m 427.352,592.729 c -3.499,-3.499 -3.499,-8.941 0,-12.44 l 0,0 c 3.5,-3.5 8.942,-3.5 12.441,0 l 0,0 c 18.273,18.272 42.766,28.769 68.814,28.769 l 0,0 c 26.049,0 50.542,-10.108 69.204,-28.769 l 0,0 c 1.555,-1.556 3.887,-2.722 6.221,-2.722 l 0,0 c 2.331,0 4.275,0.777 6.219,2.722 l 0,0 c 3.111,3.499 3.111,9.33 -0.388,12.44 l 0,0 c -21.771,21.772 -50.542,33.824 -81.256,33.824 l 0,0 c -30.713,0 -59.483,-12.052 -81.255,-33.824 m 40.823,-18.316 c -3.5,-3.499 -3.5,-8.942 0,-12.441 l 0,0 c 3.498,-3.499 8.941,-3.499 12.44,0 l 0,0 c 7.388,7.387 17.495,11.664 27.992,11.664 l 0,0 c 10.498,0 20.606,-4.277 27.993,-11.664 l 0,0 c 1.944,-1.555 3.888,-2.332 6.221,-2.332 l 0,0 c 2.332,0 4.275,0.777 6.22,2.332 l 0,0 c 3.499,3.499 3.499,8.942 0,12.441 l 0,0 c -10.886,10.886 -25.271,16.718 -40.434,16.718 l 0,0 c -15.162,0 -29.547,-5.832 -40.432,-16.718 m 22.548,-36.168 c 0,-8.151 5.488,-14.953 12.946,-17.106 l 0,0 0,-11.544 -75.976,0 c -25.204,0 -45.637,-20.432 -45.637,-45.637 l 0,0 0,-276.874 c 0,-25.205 20.433,-45.637 45.637,-45.637 l 0,0 166.843,0 c 25.205,0 45.638,20.432 45.638,45.637 l 0,0 0,276.874 c 0,25.205 -20.433,45.637 -45.638,45.637 l 0,0 -80.939,0 0,11.559 c 7.432,2.171 12.895,8.958 12.895,17.091 l 0,0 c 0,9.877 -8.007,17.884 -17.885,17.884 l 0,0 c -9.877,0 -17.884,-8.007 -17.884,-17.884 m 61.904,-104.762 c 1.225,9.875 9.628,17.523 19.835,17.523 l 0,0 c 11.048,0 20.004,-8.957 20.004,-20.004 l 0,0 c 0,-11.049 -8.956,-20.004 -20.004,-20.004 l 0,0 c -10.769,0 -19.525,8.514 -19.963,19.177 l 0,0 -82.768,0 c -0.438,-10.663 -9.194,-19.177 -19.963,-19.177 l 0,0 c -11.049,0 -20.005,8.955 -20.005,20.004 l 0,0 c 0,11.047 8.956,20.004 20.005,20.004 l 0,0 c 10.206,0 18.61,-7.648 19.835,-17.523 l 0,0 83.024,0 z M 403.175,199.6 l 0,160.274 c 3.34,-1.603 7.083,-2.502 11.035,-2.502 l 0,0 193.81,0 c 3.496,0 6.827,0.705 9.861,1.976 l 0,0 0,-159.748 c 0,-13.326 -10.802,-24.129 -24.128,-24.129 l 0,0 -166.449,0 c -13.326,0 -24.129,10.803 -24.129,24.129 m 99.667,-41.466 0,1.208 c 0,3.322 2.692,6.014 6.013,6.014 l 0,0 1.209,0 c 3.322,0 6.015,-2.692 6.015,-6.014 l 0,0 0,-1.208 c 0,-3.322 -2.693,-6.014 -6.015,-6.014 l 0,0 -1.209,0 c -3.321,0 -6.013,2.692 -6.013,6.014"
                 style="fill:url(#linearGradient3641);stroke:none"
                 id="path3649" />
            </g>
          </g>
        </g>
      </g>
    </g>
  </g>
</svg>
